<svg viewBox="0 0 400 400" xmlns="http://www.w3.org/2000/svg">
  <!-- Doctor Hoji SÚPER ADORABLE Y ANIMADO -->
  
  <!-- Efectos de brillo flotantes -->
  <g opacity="0.8">
    <circle cx="80" cy="100" r="3" fill="#FFEB3B">
      <animate attributeName="opacity" values="0.3;1;0.3" dur="2s" repeatCount="indefinite"/>
      <animateTransform attributeName="transform" type="translate" values="0,0; 5,-10; 0,0" dur="3s" repeatCount="indefinite"/>
    </circle>
    <circle cx="320" cy="120" r="2" fill="#FFEB3B">
      <animate attributeName="opacity" values="0.5;1;0.5" dur="1.8s" repeatCount="indefinite"/>
      <animateTransform attributeName="transform" type="translate" values="0,0; -5,-8; 0,0" dur="2.5s" repeatCount="indefinite"/>
    </circle>
    <circle cx="100" cy="300" r="2.5" fill="#FFEB3B">
      <animate attributeName="opacity" values="0.4;1;0.4" dur="2.2s" repeatCount="indefinite"/>
    </circle>
  </g>
  
  <!-- Sombra animada -->
  <ellipse cx="200" cy="385" rx="45" ry="8" fill="#4CAF50" opacity="0.3">
    <animateTransform attributeName="transform" type="scale" values="1;1.1;1" dur="3s" repeatCount="indefinite"/>
  </ellipse>
  
  <!-- Grupo principal con animación de flotación -->
  <g>
    <animateTransform attributeName="transform" type="translate" values="0,0; 0,-8; 0,0" dur="4s" repeatCount="indefinite"/>
    
    <!-- Cuerpo regordete súper tierno -->
    <ellipse cx="200" cy="260" rx="75" ry="80" fill="#66BB6A" stroke="#388E3C" stroke-width="4"/>
    
    <!-- Bata blanca adorable -->
    <path d="M135 200 Q135 180 155 180 L245 180 Q265 180 265 200 L265 320 Q265 330 255 330 L145 330 Q135 330 135 320 Z" 
          fill="white" stroke="#388E3C" stroke-width="4"/>
    
    <!-- Solapas lindas -->
    <path d="M155 180 L180 210 L155 210 Z" fill="#F0F0F0"/>
    <path d="M245 180 L220 210 L245 210 Z" fill="#F0F0F0"/>
    
    <!-- Botones súper adorables -->
    <circle cx="200" cy="220" r="6" fill="#4CAF50">
      <animate attributeName="r" values="6;8;6" dur="2s" repeatCount="indefinite"/>
    </circle>
    <circle cx="200" cy="250" r="6" fill="#4CAF50">
      <animate attributeName="r" values="6;8;6" dur="2s" begin="0.3s" repeatCount="indefinite"/>
    </circle>
    <circle cx="200" cy="280" r="6" fill="#4CAF50">
      <animate attributeName="r" values="6;8;6" dur="2s" begin="0.6s" repeatCount="indefinite"/>
    </circle>
    
    <!-- Brazos regordetes -->
    <ellipse cx="110" cy="240" rx="25" ry="50" fill="white" stroke="#388E3C" stroke-width="4" transform="rotate(-20 110 240)">
      <animateTransform attributeName="transform" type="rotate" values="-20 110 240; -15 110 240; -20 110 240" dur="3s" repeatCount="indefinite"/>
    </ellipse>
    <ellipse cx="290" cy="240" rx="25" ry="50" fill="white" stroke="#388E3C" stroke-width="4" transform="rotate(25 290 240)">
      <animateTransform attributeName="transform" type="rotate" values="25 290 240; 35 290 240; 25 290 240" dur="2.5s" repeatCount="indefinite"/>
    </ellipse>
    
    <!-- Manitas adorables -->
    <circle cx="85" cy="290" r="18" fill="#66BB6A" stroke="#388E3C" stroke-width="4"/>
    <circle cx="315" cy="285" r="18" fill="#66BB6A" stroke="#388E3C" stroke-width="4"/>
    
    <!-- Mano saludando con deditos -->
    <g transform="translate(315, 285)">
      <ellipse cx="-5" cy="-15" rx="3" ry="10" fill="#66BB6A" transform="rotate(-20)">
        <animateTransform attributeName="transform" type="rotate" values="-20; -10; -20" dur="1s" repeatCount="indefinite"/>
      </ellipse>
      <ellipse cx="0" cy="-18" rx="3" ry="12" fill="#66BB6A">
        <animateTransform attributeName="transform" type="rotate" values="0; 10; 0" dur="1.2s" repeatCount="indefinite"/>
      </ellipse>
      <ellipse cx="5" cy="-15" rx="3" ry="10" fill="#66BB6A" transform="rotate(20)">
        <animateTransform attributeName="transform" type="rotate" values="20; 30; 20" dur="1.1s" repeatCount="indefinite"/>
      </ellipse>
    </g>
    
    <!-- Piernas cortitas -->
    <ellipse cx="175" cy="350" rx="20" ry="35" fill="#66BB6A" stroke="#388E3C" stroke-width="4"/>
    <ellipse cx="225" cy="350" rx="20" ry="35" fill="#66BB6A" stroke="#388E3C" stroke-width="4"/>
    
    <!-- Zapatos médicos adorables -->
    <ellipse cx="175" cy="380" rx="28" ry="15" fill="white" stroke="#388E3C" stroke-width="4"/>
    <ellipse cx="225" cy="380" rx="28" ry="15" fill="white" stroke="#388E3C" stroke-width="4"/>
    <line x1="155" y1="380" x2="195" y2="380" stroke="#E0E0E0" stroke-width="3"/>
    <line x1="205" y1="380" x2="245" y2="380" stroke="#E0E0E0" stroke-width="3"/>
    
    <!-- Cabeza súper adorable -->
    <circle cx="200" cy="120" r="70" fill="#66BB6A" stroke="#388E3C" stroke-width="5">
      <animate attributeName="r" values="70;72;70" dur="3s" repeatCount="indefinite"/>
    </circle>
    
    <!-- Orejas tiernas con animación -->
    <circle cx="145" cy="105" r="18" fill="#66BB6A" stroke="#388E3C" stroke-width="4">
      <animateTransform attributeName="transform" type="rotate" values="0 145 105; 5 145 105; 0 145 105" dur="4s" repeatCount="indefinite"/>
    </circle>
    <circle cx="255" cy="105" r="18" fill="#66BB6A" stroke="#388E3C" stroke-width="4">
      <animateTransform attributeName="transform" type="rotate" values="0 255 105; -5 255 105; 0 255 105" dur="4s" repeatCount="indefinite"/>
    </circle>
    <circle cx="145" cy="105" r="10" fill="#81C784"/>
    <circle cx="255" cy="105" r="10" fill="#81C784"/>
    
    <!-- Ojos ENORMES y expresivos -->
    <circle cx="175" cy="110" r="25" fill="white"/>
    <circle cx="225" cy="110" r="25" fill="white"/>
    
    <!-- Pupilas animadas -->
    <circle cx="175" cy="115" r="18" fill="#2E7D32">
      <animate attributeName="r" values="18;20;18" dur="5s" repeatCount="indefinite"/>
    </circle>
    <circle cx="225" cy="115" r="18" fill="#2E7D32">
      <animate attributeName="r" values="18;20;18" dur="5s" begin="0.5s" repeatCount="indefinite"/>
    </circle>
    
    <!-- Brillos enormes -->
    <circle cx="170" cy="105" r="8" fill="white">
      <animate attributeName="opacity" values="1;0.7;1" dur="2s" repeatCount="indefinite"/>
    </circle>
    <circle cx="220" cy="105" r="8" fill="white">
      <animate attributeName="opacity" values="1;0.7;1" dur="2s" begin="0.3s" repeatCount="indefinite"/>
    </circle>
    <circle cx="172" cy="108" r="3" fill="white"/>
    <circle cx="222" cy="108" r="3" fill="white"/>
    
    <!-- Cejas expresivas animadas -->
    <path d="M155 85 Q170 75 185 85" fill="none" stroke="#2E7D32" stroke-width="5" stroke-linecap="round">
      <animateTransform attributeName="transform" type="translate" values="0,0; 0,-2; 0,0" dur="3s" repeatCount="indefinite"/>
    </path>
    <path d="M215 85 Q230 75 245 85" fill="none" stroke="#2E7D32" stroke-width="5" stroke-linecap="round">
      <animateTransform attributeName="transform" type="translate" values="0,0; 0,-2; 0,0" dur="3s" begin="0.5s" repeatCount="indefinite"/>
    </path>
    
    <!-- Mejillas súper sonrojadas -->
    <circle cx="130" cy="130" r="15" fill="#FFB3BA" opacity="0.9">
      <animate attributeName="r" values="15;18;15" dur="2s" repeatCount="indefinite"/>
    </circle>
    <circle cx="270" cy="130" r="15" fill="#FFB3BA" opacity="0.9">
      <animate attributeName="r" values="15;18;15" dur="2s" begin="0.3s" repeatCount="indefinite"/>
    </circle>
    
    <!-- Nariz adorable -->
    <circle cx="200" cy="125" r="4" fill="#4CAF50">
      <animate attributeName="r" values="4;5;4" dur="3s" repeatCount="indefinite"/>
    </circle>
    
    <!-- Sonrisa GIGANTE -->
    <path d="M160 150 Q200 180 240 150" fill="#FF5722" stroke="#D84315" stroke-width="4"/>
    <ellipse cx="200" cy="160" rx="25" ry="12" fill="#FF8A65">
      <animate attributeName="ry" values="12;15;12" dur="2s" repeatCount="indefinite"/>
    </ellipse>
    
    <!-- Dientes lindos -->
    <rect x="190" y="155" width="4" height="8" fill="white" rx="2"/>
    <rect x="198" y="155" width="4" height="8" fill="white" rx="2"/>
    <rect x="206" y="155" width="4" height="8" fill="white" rx="2"/>
    
    <!-- Estetoscopio profesional animado -->
    <path d="M160 180 Q140 175 135 195 Q130 220 135 235 Q150 230 160 210" 
          fill="none" stroke="#37474F" stroke-width="6" stroke-linecap="round">
      <animate attributeName="stroke-width" values="6;7;6" dur="2s" repeatCount="indefinite"/>
    </path>
    <circle cx="135" cy="215" r="10" fill="#607D8B" stroke="#37474F" stroke-width="4">
      <animate attributeName="r" values="10;12;10" dur="3s" repeatCount="indefinite"/>
    </circle>
    <circle cx="135" cy="215" r="6" fill="white">
      <animate attributeName="opacity" values="1;0.7;1" dur="2s" repeatCount="indefinite"/>
    </circle>
    <path d="M160 180 Q175 175 190 180" fill="none" stroke="#37474F" stroke-width="5"/>
    <circle cx="160" cy="180" r="5" fill="#607D8B"/>
    <circle cx="190" cy="180" r="5" fill="#607D8B"/>
    
    <!-- Cruz médica pulsante -->
    <g>
      <rect x="190" y="290" width="20" height="40" fill="#E53935" rx="4">
        <animate attributeName="fill" values="#E53935;#FF1744;#E53935" dur="2s" repeatCount="indefinite"/>
      </rect>
      <rect x="180" y="300" width="40" height="20" fill="#E53935" rx="4">
        <animate attributeName="fill" values="#E53935;#FF1744;#E53935" dur="2s" begin="0.3s" repeatCount="indefinite"/>
      </rect>
    </g>
    
    <!-- Gorro médico adorable -->
    <path d="M150 60 Q200 45 250 60 Q250 75 240 85 L160 85 Q150 75 150 60 Z" 
          fill="white" stroke="#388E3C" stroke-width="4"/>
    <circle cx="200" cy="70" r="12" fill="#4CAF50">
      <animate attributeName="r" values="12;15;12" dur="3s" repeatCount="indefinite"/>
    </circle>
  </g>
  
  <!-- Corazones flotantes súper adorables -->
  <g opacity="0.8">
    <path d="M340 140 Q338 135 333 137 Q328 135 326 140 Q328 145 333 148 Q338 145 340 140 Z" fill="#FF8A80">
      <animateTransform attributeName="transform" type="translate" values="0,0; -5,-25; 0,-50" dur="4s" repeatCount="indefinite"/>
      <animate attributeName="opacity" values="0.8;1;0" dur="4s" repeatCount="indefinite"/>
    </path>
    <path d="M350 200 Q348 195 343 197 Q338 195 336 200 Q338 205 343 208 Q348 205 350 200 Z" fill="#FFB3BA">
      <animateTransform attributeName="transform" type="translate" values="0,0; -8,-30; 0,-60" dur="5s" repeatCount="indefinite"/>
      <animate attributeName="opacity" values="0.8;1;0" dur="5s" repeatCount="indefinite"/>
    </path>
    <path d="M330 260 Q328 255 323 257 Q318 255 316 260 Q318 265 323 268 Q328 265 330 260 Z" fill="#F8BBD9">
      <animateTransform attributeName="transform" type="translate" values="0,0; -3,-20; 0,-40" dur="3.5s" repeatCount="indefinite"/>
      <animate attributeName="opacity" values="0.8;1;0" dur="3.5s" repeatCount="indefinite"/>
    </path>
  </g>
  
  <!-- Estrellas mágicas -->
  <g opacity="0.7">
    <path d="M60 150 L65 160 L75 160 L67 167 L70 177 L60 170 L50 177 L53 167 L45 160 L55 160 Z" fill="#FFEB3B">
      <animateTransform attributeName="transform" type="rotate" values="0 60 150; 360 60 150" dur="8s" repeatCount="indefinite"/>
      <animate attributeName="opacity" values="0.7;1;0.7" dur="2s" repeatCount="indefinite"/>
    </path>
    <path d="M350 80 L353 85 L358 85 L354 88 L356 93 L350 90 L344 93 L346 88 L342 85 L347 85 Z" fill="#FFEB3B">
      <animateTransform attributeName="transform" type="rotate" values="0 350 80; -360 350 80" dur="6s" repeatCount="indefinite"/>
      <animate attributeName="opacity" values="0.7;1;0.7" dur="1.8s" repeatCount="indefinite"/>
    </path>
  </g>
</svg>