<svg width="400" height="400" viewBox="0 0 400 400" fill="none" xmlns="http://www.w3.org/2000/svg">
  <!-- Hoji exacto de la imagen de referencia -->
  
  <!-- Sombra oval -->
  <ellipse cx="200" cy="385" rx="35" ry="6" fill="#7CB342" opacity="0.4"/>
  
  <!-- Piernas verdes -->
  <ellipse cx="185" cy="350" rx="14" ry="22" fill="#8BC34A" stroke="#4CAF50" stroke-width="3"/>
  <ellipse cx="215" cy="350" rx="14" ry="22" fill="#8BC34A" stroke="#4CAF50" stroke-width="3"/>
  
  <!-- Pies verdes -->
  <ellipse cx="185" cy="372" rx="20" ry="8" fill="#8BC34A" stroke="#4CAF50" stroke-width="3"/>
  <ellipse cx="215" cy="372" rx="20" ry="8" fill="#8BC34A" stroke="#4CAF50" stroke-width="3"/>
  
  <!-- Bata blanca -->
  <path d="M155 220 Q155 205 170 205 L230 205 Q245 205 245 220 L245 315 Q245 325 235 325 L165 325 Q155 325 155 315 Z" 
        fill="white" stroke="#4CAF50" stroke-width="3"/>
  
  <!-- Solapas de la bata -->
  <path d="M170 205 L185 220 L170 220 Z" fill="#F8F8F8"/>
  <path d="M230 205 L215 220 L230 220 Z" fill="#F8F8F8"/>
  
  <!-- Brazos con mangas blancas -->
  <ellipse cx="130" cy="240" rx="16" ry="30" fill="white" stroke="#4CAF50" stroke-width="3" transform="rotate(-25 130 240)"/>
  <ellipse cx="270" cy="240" rx="16" ry="30" fill="white" stroke="#4CAF50" stroke-width="3" transform="rotate(30 270 240)"/>
  
  <!-- Manos verdes -->
  <circle cx="118" cy="275" r="10" fill="#8BC34A" stroke="#4CAF50" stroke-width="3"/>
  <!-- Mano derecha saludando (corazón verde) -->
  <path d="M280 260 Q275 255 270 260 Q270 265 280 275 Q290 265 290 260 Q285 255 280 260 Z" 
        fill="#8BC34A" stroke="#4CAF50" stroke-width="3"/>
  
  <!-- Cabeza redonda verde -->
  <circle cx="200" cy="155" r="55" fill="#8BC34A" stroke="#4CAF50" stroke-width="4"/>
  
  <!-- 3 hojas arriba (exactas como la imagen) -->
  <path d="M175 110 Q165 80 180 70 Q195 80 190 110 Q185 125 175 110 Z" fill="#AED581" stroke="#4CAF50" stroke-width="3"/>
  <path d="M200 100 Q190 65 210 55 Q225 70 220 100 Q215 120 200 100 Z" fill="#AED581" stroke="#4CAF50" stroke-width="3"/>
  <path d="M225 110 Q235 80 220 70 Q205 80 210 110 Q215 125 225 110 Z" fill="#AED581" stroke="#4CAF50" stroke-width="3"/>
  
  <!-- Nervaduras de las hojas -->
  <line x1="182" y1="90" x2="182" y2="110" stroke="#4CAF50" stroke-width="2"/>
  <line x1="210" y1="77" x2="210" y2="100" stroke="#4CAF50" stroke-width="2"/>
  <line x1="217" y1="90" x2="217" y2="110" stroke="#4CAF50" stroke-width="2"/>
  
  <!-- Cejas verdes -->
  <path d="M180 135 Q185 132 190 135" fill="none" stroke="#4CAF50" stroke-width="4" stroke-linecap="round"/>
  <path d="M210 135 Q215 132 220 135" fill="none" stroke="#4CAF50" stroke-width="4" stroke-linecap="round"/>
  
  <!-- Ojos redondos blancos -->
  <circle cx="185" cy="150" r="14" fill="white"/>
  <circle cx="215" cy="150" r="14" fill="white"/>
  
  <!-- Pupilas verdes ovaladas -->
  <ellipse cx="185" cy="152" rx="7" ry="9" fill="#4CAF50"/>
  <ellipse cx="215" cy="152" rx="7" ry="9" fill="#4CAF50"/>
  
  <!-- Brillos blancos -->
  <circle cx="183" cy="148" r="2" fill="white"/>
  <circle cx="213" cy="148" r="2" fill="white"/>
  
  <!-- Mejillas amarillas -->
  <circle cx="155" cy="170" r="8" fill="#FFEB3B" opacity="0.9"/>
  <circle cx="245" cy="170" r="8" fill="#FFEB3B" opacity="0.9"/>
  
  <!-- Boca roja sonriente -->
  <path d="M185 175 Q200 188 215 175" fill="#E53935" stroke="#C62828" stroke-width="2"/>
  
  <!-- Lengua rosa -->
  <ellipse cx="200" cy="180" rx="8" ry="4" fill="#FF8A80"/>
  
  <!-- Nervadura central verde -->
  <line x1="200" y1="230" x2="200" y2="270" stroke="#4CAF50" stroke-width="3"/>
  <path d="M190 240 Q200 235 210 240" stroke="#4CAF50" stroke-width="2" fill="none"/>
  <path d="M190 255 Q200 250 210 255" stroke="#4CAF50" stroke-width="2" fill="none"/>
  
  <!-- Estetoscopio -->
  <path d="M175 205 Q165 200 160 210 Q155 220 160 230 Q170 225 175 215" 
        fill="none" stroke="#424242" stroke-width="3" stroke-linecap="round"/>
  <circle cx="160" cy="220" r="4" fill="#616161"/>
  <path d="M175 205 Q185 200 190 205" fill="none" stroke="#424242" stroke-width="2"/>
  <circle cx="175" cy="205" r="2" fill="#616161"/>
  <circle cx="190" cy="205" r="2" fill="#616161"/>
  
  <!-- Círculo médico -->
  <circle cx="225" cy="250" r="8" fill="white" stroke="#4CAF50" stroke-width="2"/>
  <circle cx="225" cy="250" r="4" fill="#616161"/>
</svg>