<svg viewBox="0 0 400 400" xmlns="http://www.w3.org/2000/svg">
  <!-- Mi propuesta de Hoji adorable - Doctor Natural -->
  
  <!-- Sombra suave -->
  <ellipse cx="200" cy="385" rx="45" ry="8" fill="#4CAF50" opacity="0.2"/>
  
  <!-- Cuerpo redondo y gordito (súper adorable) -->
  <circle cx="200" cy="250" r="70" fill="#66BB6A" stroke="#388E3C" stroke-width="3"/>
  
  <!-- Bata blanca profesional -->
  <path d="M140 200 Q140 185 155 185 L245 185 Q260 185 260 200 L260 310 Q260 320 250 320 L150 320 Q140 320 140 310 Z" 
        fill="white" stroke="#388E3C" stroke-width="3"/>
  
  <!-- Solapas profesionales -->
  <path d="M155 185 L175 205 L155 205 Z" fill="#F8F8F8"/>
  <path d="M245 185 L225 205 L245 205 Z" fill="#F8F8F8"/>
  
  <!-- Botones lindos -->
  <circle cx="200" cy="220" r="4" fill="#4CAF50"/>
  <circle cx="200" cy="240" r="4" fill="#4CAF50"/>
  <circle cx="200" cy="260" r="4" fill="#4CAF50"/>
  
  <!-- Brazos regordetes -->
  <ellipse cx="115" cy="230" rx="20" ry="40" fill="white" stroke="#388E3C" stroke-width="3" transform="rotate(-15 115 230)"/>
  <ellipse cx="285" cy="230" rx="20" ry="40" fill="white" stroke="#388E3C" stroke-width="3" transform="rotate(20 285 230)"/>
  
  <!-- Manitas tiernas -->
  <circle cx="95" cy="270" r="15" fill="#66BB6A" stroke="#388E3C" stroke-width="3"/>
  <circle cx="305" cy="265" r="15" fill="#66BB6A" stroke="#388E3C" stroke-width="3"/>
  
  <!-- Mano saludando con deditos -->
  <ellipse cx="300" cy="250" rx="4" ry="12" fill="#66BB6A" transform="rotate(-10 300 250)"/>
  <ellipse cx="306" cy="248" rx="4" ry="12" fill="#66BB6A" transform="rotate(10 306 248)"/>
  <ellipse cx="312" cy="252" rx="4" ry="12" fill="#66BB6A" transform="rotate(30 312 252)"/>
  <ellipse cx="317" cy="258" rx="4" ry="10" fill="#66BB6A" transform="rotate(45 317 258)"/>
  
  <!-- Piernas cortitas y adorables -->
  <ellipse cx="175" cy="340" rx="18" ry="30" fill="#66BB6A" stroke="#388E3C" stroke-width="3"/>
  <ellipse cx="225" cy="340" rx="18" ry="30" fill="#66BB6A" stroke="#388E3C" stroke-width="3"/>
  
  <!-- Zapatos médicos -->
  <ellipse cx="175" cy="370" rx="25" ry="12" fill="white" stroke="#388E3C" stroke-width="3"/>
  <ellipse cx="225" cy="370" rx="25" ry="12" fill="white" stroke="#388E3C" stroke-width="3"/>
  <line x1="160" y1="370" x2="190" y2="370" stroke="#E0E0E0" stroke-width="2"/>
  <line x1="210" y1="370" x2="240" y2="370" stroke="#E0E0E0" stroke-width="2"/>
  
  <!-- Cabeza súper adorable -->
  <circle cx="200" cy="140" r="65" fill="#66BB6A" stroke="#388E3C" stroke-width="4"/>
  
  <!-- Orejas tiernas -->
  <circle cx="155" cy="120" r="15" fill="#66BB6A" stroke="#388E3C" stroke-width="3"/>
  <circle cx="245" cy="120" r="15" fill="#66BB6A" stroke="#388E3C" stroke-width="3"/>
  <circle cx="155" cy="120" r="8" fill="#81C784"/>
  <circle cx="245" cy="120" r="8" fill="#81C784"/>
  
  <!-- Ojos enormes y tiernos -->
  <circle cx="180" cy="130" r="20" fill="white"/>
  <circle cx="220" cy="130" r="20" fill="white"/>
  <circle cx="180" cy="133" r="14" fill="#2E7D32"/>
  <circle cx="220" cy="133" r="14" fill="#2E7D32"/>
  <circle cx="177" cy="127" r="5" fill="white"/>
  <circle cx="217" cy="127" r="5" fill="white"/>
  <circle cx="179" cy="129" r="2" fill="white"/>
  <circle cx="219" cy="129" r="2" fill="white"/>
  
  <!-- Cejas expresivas -->
  <path d="M165 110 Q175 105 185 110" fill="none" stroke="#2E7D32" stroke-width="4" stroke-linecap="round"/>
  <path d="M215 110 Q225 105 235 110" fill="none" stroke="#2E7D32" stroke-width="4" stroke-linecap="round"/>
  
  <!-- Mejillas sonrojadas -->
  <circle cx="145" cy="150" r="12" fill="#FFB3BA" opacity="0.8"/>
  <circle cx="255" cy="150" r="12" fill="#FFB3BA" opacity="0.8"/>
  
  <!-- Nariz pequeña -->
  <circle cx="200" cy="145" r="3" fill="#4CAF50"/>
  
  <!-- Sonrisa gigante y adorable -->
  <path d="M170 165 Q200 185 230 165" fill="#FF5722" stroke="#D84315" stroke-width="3"/>
  <ellipse cx="200" cy="172" rx="20" ry="8" fill="#FF8A65"/>
  
  <!-- Dientes lindos -->
  <rect x="195" y="169" width="3" height="6" fill="white" rx="1"/>
  <rect x="202" y="169" width="3" height="6" fill="white" rx="1"/>
  
  <!-- Estetoscopio profesional -->
  <path d="M165 185 Q150 180 145 195 Q140 210 145 220 Q160 215 165 200" 
        fill="none" stroke="#37474F" stroke-width="5" stroke-linecap="round"/>
  <circle cx="145" cy="207" r="8" fill="#607D8B" stroke="#37474F" stroke-width="3"/>
  <circle cx="145" cy="207" r="4" fill="white"/>
  <path d="M165 185 Q175 180 185 185" fill="none" stroke="#37474F" stroke-width="4"/>
  <circle cx="165" cy="185" r="4" fill="#607D8B"/>
  <circle cx="185" cy="185" r="4" fill="#607D8B"/>
  
  <!-- Cruz médica en el pecho -->
  <rect x="195" y="280" width="10" height="25" fill="#E53935" rx="2"/>
  <rect x="187.5" y="287.5" width="25" height="10" fill="#E53935" rx="2"/>
  <rect x="197" y="282" width="6" height="21" fill="#FF5722"/>
  <rect x="189.5" y="289.5" width="21" height="6" fill="#FF5722"/>
  
  <!-- Gorro médico opcional -->
  <path d="M160 85 Q200 75 240 85 Q240 95 230 100 L170 100 Q160 95 160 85 Z" 
        fill="white" stroke="#388E3C" stroke-width="3"/>
  <circle cx="200" cy="90" r="8" fill="#4CAF50"/>
  
  <!-- Animación de corazones flotantes -->
  <g opacity="0.7">
    <path d="M320 150 Q318 146 314 148 Q310 146 308 150 Q310 154 314 156 Q318 154 320 150 Z" fill="#FF8A80">
      <animateTransform attributeName="transform" type="translate" 
                        values="0,0; 0,-20; 0,0" dur="3s" repeatCount="indefinite"/>
    </path>
    <path d="M330 200 Q328 196 324 198 Q320 196 318 200 Q320 204 324 206 Q328 204 330 200 Z" fill="#FFB3BA">
      <animateTransform attributeName="transform" type="translate" 
                        values="0,0; 0,-15; 0,0" dur="2.5s" repeatCount="indefinite"/>
    </path>
  </g>
  
  <!-- Animación suave de respiración -->
  <animateTransform attributeName="transform" type="scale" 
                    values="1;1.02;1" dur="4s" repeatCount="indefinite"/>
</svg>